<?xml version="1.0" standalone="no"?>
<!DOCTYPE svg PUBLIC "-//W3C//DTD SVG 20010904//EN"
 "http://www.w3.org/TR/2001/REC-SVG-20010904/DTD/svg10.dtd">
<svg version="1.0" xmlns="http://www.w3.org/2000/svg"
 width="700.000000pt" height="700.000000pt" viewBox="0 0 700.000000 700.000000"
 preserveAspectRatio="xMidYMid meet">
<metadata>
Created by potrace 1.14, written by Peter Selinger 2001-2017
</metadata>
<g transform="translate(0.000000,700.000000) scale(0.100000,-0.100000)"
fill="#000000" stroke="none">
<path d="M4840 5916 c-130 -33 -213 -146 -209 -281 3 -104 57 -189 150 -240
47 -26 64 -29 134 -29 91 0 140 20 200 79 59 60 79 109 79 195 0 106 -33 173
-118 238 -54 41 -157 58 -236 38z"/>
<path d="M3089 5806 c-2 -2 -31 -7 -64 -11 -135 -15 -321 -73 -465 -145 -341
-172 -575 -472 -625 -801 -8 -52 -8 -223 0 -259 3 -14 8 -38 10 -55 10 -56 47
-160 86 -240 47 -96 106 -176 196 -268 65 -65 203 -177 219 -177 4 0 15 -7 25
-16 16 -14 12 -23 -58 -137 -42 -67 -83 -136 -93 -152 -9 -17 -60 -100 -112
-185 -162 -264 -343 -559 -353 -577 -6 -10 -23 -39 -39 -65 l-28 -48 53 -109
52 -110 56 43 c160 121 395 257 571 331 117 50 313 112 404 129 6 1 25 5 41 9
122 27 368 39 519 24 358 -36 670 -202 823 -439 77 -119 103 -214 99 -358 -9
-282 -170 -486 -487 -618 -320 -133 -827 -154 -1144 -47 -183 61 -252 144
-201 243 9 17 41 52 72 79 70 60 94 105 94 175 -1 96 -51 172 -146 219 -41 20
-64 24 -144 24 -82 0 -103 -4 -150 -26 -127 -60 -191 -162 -191 -309 0 -181
63 -330 196 -466 174 -178 504 -319 840 -359 28 -4 57 -8 65 -10 67 -17 401
-25 510 -12 125 14 201 27 280 46 25 7 55 14 67 16 12 3 60 18 107 34 379 129
634 355 730 647 60 184 59 419 -4 619 -98 310 -370 555 -760 684 -52 17 -104
33 -115 35 -11 2 -38 9 -60 14 -63 17 -213 41 -295 48 -150 12 -409 6 -516
-12 -308 -51 -531 -120 -747 -230 -48 -24 -92 -42 -98 -39 -5 4 6 35 25 73 19
37 105 211 191 387 86 175 157 320 159 322 1 2 27 -6 57 -16 72 -26 201 -57
269 -67 30 -4 64 -9 75 -10 43 -6 293 -5 340 1 127 17 173 26 295 62 88 25
350 148 350 164 0 5 5 9 11 9 17 0 118 82 186 149 153 154 247 321 289 514 16
73 22 250 10 322 -25 153 -94 312 -194 446 -96 130 -292 286 -458 364 -78 37
-259 101 -309 108 -16 3 -41 8 -55 11 -14 3 -38 9 -55 12 -32 7 -400 16 -406
10z m364 -180 c79 -22 122 -41 181 -80 170 -114 275 -327 303 -616 14 -139 6
-491 -12 -543 -3 -7 -6 -23 -9 -37 -47 -275 -191 -458 -421 -533 -80 -26 -322
-33 -410 -12 -279 67 -437 258 -501 605 -22 120 -27 437 -9 565 64 461 296
681 705 670 63 -2 141 -11 173 -19z"/>
</g>
</svg>
